<?xml version="1.0" encoding="UTF-8" standalone="no"?>
<svg
   width="3.33333in"
   height="3.33333in"
   viewBox="0 0 1000 1000"
   version="1.1"
   id="svg1"
   sodipodi:docname="icon.svg"
   inkscape:version="1.4 (86a8ad7, 2024-10-11)"
   xmlns:inkscape="http://www.inkscape.org/namespaces/inkscape"
   xmlns:sodipodi="http://sodipodi.sourceforge.net/DTD/sodipodi-0.dtd"
   xmlns="http://www.w3.org/2000/svg"
   xmlns:svg="http://www.w3.org/2000/svg">
  <defs
     id="defs1" />
  <sodipodi:namedview
     id="namedview1"
     pagecolor="#ffffff"
     bordercolor="#000000"
     borderopacity="0.25"
     inkscape:showpageshadow="2"
     inkscape:pageopacity="0.0"
     inkscape:pagecheckerboard="0"
     inkscape:deskcolor="#d1d1d1"
     inkscape:document-units="in"
     showgrid="false"
     inkscape:zoom="1.2219702"
     inkscape:cx="120.29753"
     inkscape:cy="108.43145"
     inkscape:window-width="1366"
     inkscape:window-height="697"
     inkscape:window-x="-8"
     inkscape:window-y="-8"
     inkscape:window-maximized="1"
     inkscape:current-layer="layer2" />
  <g
     inkscape:groupmode="layer"
     id="layer1"
     inkscape:label="circle" />
  <g
     inkscape:groupmode="layer"
     id="layer2"
     inkscape:label="hon">
    <ellipse
       style="fill:#000000;fill-opacity:1;stroke-width:2.48864"
       id="path1"
       cx="500.47867"
       cy="509.19604"
       rx="481.87866"
       ry="477.39603" />
    <path
       id="Selección"
       fill="none"
       stroke="black"
       stroke-width="1"
       d="m 460.54691,191.06216 c 0,0 77.56881,0 77.56881,0 0,0 0,117.69061 0,117.69061 0,0 250.09256,0 250.09256,0 0,0 0,76.23142 0,76.23142 0,0 -222.0073,0 -222.0073,0 0,0 42.02089,62.85748 42.02089,62.85748 41.94066,53.8167 92.45401,100.02365 147.88896,139.65061 0,0 61.52009,40.89749 61.52009,40.89749 -2.03284,11.20736 -9.36175,23.09679 -14.3636,33.43484 0,0 -24.4208,50.82094 -24.4208,50.82094 0,0 -37.44702,-22.73569 -37.44702,-22.73569 0,0 -66.86966,-48.70786 -66.86966,-48.70786 0,0 -29.42266,-23.51138 -29.42266,-23.51138 0,0 0,50.82095 0,50.82095 0,0 -106.99146,0 -106.99146,0 0,0 0,140.4263 0,140.4263 0,0 -77.56881,0 -77.56881,0 0,0 0,-140.4263 0,-140.4263 0,0 -101.64189,0 -101.64189,0 0,0 0,-36.10962 0,-36.10962 0,0 -37.44702,28.92782 -37.44702,28.92782 -20.9837,15.72775 -76.79312,54.00395 -98.9671,64.68972 0,0 -28.43298,-54.83313 -28.43298,-54.83313 0,0 -11.68882,-24.07308 -11.68882,-24.07308 0,0 68.20706,-42.42212 68.20706,-42.42212 50.90119,-35.73515 95.61024,-78.0904 131.82685,-128.76423 21.5053,-30.07797 34.50476,-57.9225 50.05864,-90.94274 0,0 -220.6699,0 -220.6699,0 0,0 0,-76.23142 0,-76.23142 0,0 248.75516,0 248.75516,0 z m 78.9062,302.25088 c 0,0 -1.33739,32.09745 -1.33739,32.09745 0,0 0,66.86966 0,66.86966 0,0 80.2436,0 80.2436,0 0,0 -44.86955,-50.82094 -44.86955,-50.82094 0,0 -20.66273,-28.08526 -20.66273,-28.08526 z m -78.9062,12.03655 c 0,0 -2.67479,0 -2.67479,0 -5.75079,16.43656 -23.79223,43.65252 -34.77222,57.5079 -5.93803,7.48941 -19.31196,22.04025 -22.73569,29.42266 0,0 60.1827,0 60.1827,0 z"
       style="fill:#ffffff;fill-opacity:1;stroke:none;stroke-width:1.34266;stroke-dasharray:none" />
  </g>
</svg>
