<?xml version="1.0" encoding="UTF-8" standalone="no"?>
<svg
   width="3.33333in"
   height="3.33333in"
   viewBox="0 0 1000 1000"
   version="1.1"
   id="svg1"
   sodipodi:docname="langlDark.svg"
   inkscape:version="1.4 (86a8ad7, 2024-10-11)"
   xmlns:inkscape="http://www.inkscape.org/namespaces/inkscape"
   xmlns:sodipodi="http://sodipodi.sourceforge.net/DTD/sodipodi-0.dtd"
   xmlns="http://www.w3.org/2000/svg"
   xmlns:svg="http://www.w3.org/2000/svg">
  <defs
     id="defs1" />
  <sodipodi:namedview
     id="namedview1"
     pagecolor="#ffffff"
     bordercolor="#000000"
     borderopacity="0.25"
     inkscape:showpageshadow="2"
     inkscape:pageopacity="0.0"
     inkscape:pagecheckerboard="0"
     inkscape:deskcolor="#d1d1d1"
     inkscape:document-units="in"
     showgrid="false"
     inkscape:zoom="0.86406342"
     inkscape:cx="75.804621"
     inkscape:cy="130.19878"
     inkscape:window-width="1366"
     inkscape:window-height="697"
     inkscape:window-x="-8"
     inkscape:window-y="-8"
     inkscape:window-maximized="1"
     inkscape:current-layer="layer1" />
  <g
     inkscape:groupmode="layer"
     id="layer1"
     inkscape:label="BURGER"
     style="display:inline">
    <path
       id="rect1-88"
       style="display:none;fill:#101010;fill-opacity:1;stroke:none;stroke-width:0.0055937"
       d="M 557.75008,63.349567 V 936.65046 H 442.24995 V 63.399067 Z"
       sodipodi:nodetypes="ccccc" />
    <path
       id="rect1-8-5"
       style="display:inline;fill:#ffffff;fill-opacity:1;stroke:none;stroke-width:0.0055937"
       d="m 63.34956,442.24996 h 873.3009 V 557.75008 H 63.34956 Z" />
  </g>
  <g
     inkscape:groupmode="layer"
     id="layer2"
     inkscape:label="BURGER 1">
    <path
       id="path33"
       style="display:inline;fill:#ffffff;fill-opacity:1"
       d="M 500.00052 5.5969297 C 468.64216 5.5969296 437.60956 8.6602402 407.2392 14.465347 C 310.63917 32.929845 220.93776 79.880442 150.40909 150.40909 C 145.31405 155.50413 140.39431 160.73769 135.54702 166.02801 C 52.199534 256.99304 5.700689 376.10503 5.7006896 500.00052 C 5.7006896 623.89602 52.199534 743.00801 135.54702 833.97304 C 140.39431 839.26336 145.31405 844.49692 150.40909 849.59196 C 220.94063 920.12349 310.64688 967.06837 407.2514 985.5296 C 437.61801 991.33269 468.64622 994.39802 500.00052 994.39802 C 531.32127 994.39802 562.31622 991.3388 592.65199 985.54791 C 689.29432 967.09954 779.03669 920.14723 849.59196 849.59196 C 854.77076 844.41315 859.78029 839.09718 864.70428 833.71669 C 947.92136 742.78458 994.50178 623.77756 994.50178 500.00052 C 994.50178 376.22349 947.92136 257.21647 864.70428 166.28435 C 859.78029 160.90387 854.77076 155.5879 849.59196 150.40909 C 779.03648 79.853634 689.29464 32.895296 592.65199 14.447037 C 562.31649 8.6562461 531.32098 5.5969297 500.00052 5.5969297 z M 320.5997 166.28435 C 237.40245 257.21651 190.99751 376.22334 190.99751 500.00052 C 190.99751 623.77771 237.40245 742.78454 320.5997 833.71669 C 288.33461 816.37098 258.45592 794.30853 232.07422 767.92683 C 161.00091 696.85352 121.09998 600.51335 121.09998 500.00052 C 121.09998 399.48769 161.00091 303.14753 232.07422 232.07422 C 258.45592 205.69251 288.33461 183.63007 320.5997 166.28435 z M 679.35252 166.44305 C 711.61071 183.78416 741.55078 205.69816 767.92683 232.07422 C 839.00013 303.14753 878.90107 399.48769 878.90107 500.00052 C 878.90107 600.51335 839.00013 696.85352 767.92683 767.92683 C 741.55078 794.30288 711.61071 816.21689 679.35252 833.558 C 762.47676 742.64651 808.99743 623.70413 808.99743 500.00052 C 808.99743 376.29691 762.47676 257.35454 679.35252 166.44305 z M 499.89676 169.61077 C 529.86552 186.42408 557.68637 207.3381 582.42249 232.07422 C 653.49578 303.14753 693.39672 399.48769 693.39672 500.00052 C 693.39672 600.51335 653.49578 696.85352 582.42249 767.92683 C 557.68637 792.66295 529.86552 813.57697 499.89676 830.39028 C 469.93055 813.57689 442.11261 792.66228 417.37715 767.92683 C 346.30384 696.85352 306.39681 600.51335 306.39681 500.00052 C 306.39681 399.48769 346.30384 303.14753 417.37715 232.07422 C 442.11261 207.33876 469.93055 186.42416 499.89676 169.61077 z " />
  </g>
</svg>
