<?xml version="1.0" encoding="UTF-8" standalone="no"?>
<svg
   width="3.33333in"
   height="3.33333in"
   viewBox="0 0 1000 1000"
   version="1.1"
   id="svg1"
   sodipodi:docname="schemelDark.svg"
   inkscape:version="1.4 (86a8ad7, 2024-10-11)"
   xmlns:inkscape="http://www.inkscape.org/namespaces/inkscape"
   xmlns:sodipodi="http://sodipodi.sourceforge.net/DTD/sodipodi-0.dtd"
   xmlns="http://www.w3.org/2000/svg"
   xmlns:svg="http://www.w3.org/2000/svg">
  <defs
     id="defs1">
    <rect
       x="6.3652737"
       y="3.4719675"
       width="306.1118"
       height="269.07748"
       id="rect3" />
    <rect
       x="9.8372411"
       y="12.730547"
       width="295.69589"
       height="287.01598"
       id="rect2" />
    <rect
       x="26.039756"
       y="27.77574"
       width="234.3578"
       height="208.89671"
       id="rect1" />
  </defs>
  <sodipodi:namedview
     id="namedview1"
     pagecolor="#ffffff"
     bordercolor="#000000"
     borderopacity="0.25"
     inkscape:showpageshadow="2"
     inkscape:pageopacity="0.0"
     inkscape:pagecheckerboard="0"
     inkscape:deskcolor="#d1d1d1"
     inkscape:document-units="in"
     showgrid="false"
     inkscape:zoom="0.15274627"
     inkscape:cx="-3.2734023"
     inkscape:cy="284.786"
     inkscape:window-width="1366"
     inkscape:window-height="697"
     inkscape:window-x="-8"
     inkscape:window-y="-8"
     inkscape:window-maximized="1"
     inkscape:current-layer="svg1" />
  <path
     id="Selección"
     fill="none"
     stroke="black"
     stroke-width="1"
     d="m 440.22258,31.912353 c 0,0 117.5285,0 117.5285,0 0,0 0,178.319107 0,178.319107 0,0 378.92812,0 378.92812,0 0,0 0,115.50216 0,115.50216 0,0 -336.37469,0 -336.37469,0 0,0 63.66802,95.2386 63.66802,95.2386 63.54645,81.54046 140.08183,151.55098 224.07418,211.59184 0,0 93.21226,61.96589 93.21226,61.96589 -3.08006,16.98084 -14.18448,34.99513 -21.76303,50.65884 0,0 -37.00122,77.00143 -37.00122,77.00143 0,0 -56.7379,-34.44801 -56.7379,-34.44801 0,0 -101.31767,-73.79979 -101.31767,-73.79979 0,0 -44.57979,-35.6233 -44.57979,-35.6233 0,0 0,77.00143 0,77.00143 0,0 -162.10828,0 -162.10828,0 0,0 0,212.76712 0,212.76712 0,0 -117.5285,0 -117.5285,0 0,0 0,-212.76712 0,-212.76712 0,0 -154.00286,0 -154.00286,0 0,0 0,-54.71154 0,-54.71154 0,0 -56.7379,43.83003 -56.7379,43.83003 -31.79349,23.82992 -116.35322,81.82416 -149.950161,98.01472 0,0 -43.080276,-83.08049 -43.080276,-83.08049 0,0 -17.710331,-36.47437 -17.710331,-36.47437 0,0 103.344028,-64.27594 103.344028,-64.27594 77.12302,-54.14416 144.864,-118.31878 199.73766,-195.09731 32.58378,-45.57268 52.27993,-87.76137 75.84642,-137.79203 0,0 -334.34833,0 -334.34833,0 0,0 0,-115.50216 0,-115.50216 0,0 376.90175,0 376.90175,0 z M 559.77743,489.86824 c 0,0 -2.02635,48.63249 -2.02635,48.63249 0,0 0,101.31768 0,101.31768 0,0 121.58122,0 121.58122,0 0,0 -67.98417,-77.00143 -67.98417,-77.00143 0,0 -31.30716,-42.55343 -31.30716,-42.55343 z m -119.55485,18.23719 c 0,0 -4.0527,0 -4.0527,0 -8.71333,24.90388 -36.04884,66.14018 -52.68519,87.13319 -8.99701,11.34759 -29.26055,33.39431 -34.44801,44.57979 0,0 91.1859,0 91.1859,0 z"
     style="display:none;fill:#101010;fill-opacity:1;stroke:none;stroke-width:2.03433;stroke-dasharray:none"
     inkscape:label="Selección" />
  <text
     xml:space="preserve"
     transform="scale(3.1250033)"
     id="text1"
     style="font-weight:bold;font-size:192px;font-family:Helvetica;-inkscape-font-specification:'Helvetica Bold';text-align:start;writing-mode:lr-tb;direction:ltr;white-space:pre;shape-inside:url(#rect1);display:none;fill:#ffffff;stroke:#ffffff;stroke-width:0.288"><tspan
       x="26.039062"
       y="408.51562"
       id="tspan3"><tspan
         dx="0 63.9375 106.78125 117.28125"
         id="tspan2">tsuk</tspan></tspan></text>
  <path
     d="M 145.58789,158.23047 H 74.337891 q 0,32.25 -33,60.75 l -12.75,-14.25 q 30.75,-19.5 30.75,-58.5 V 54.730469 H 160.58789 V 202.48047 q 0,12 -12.75,12 h -18 l -3,-16.5 h 15.75 q 3,0 3,-3 z m -71.249999,-16.5 h 71.249999 v -27 H 74.337891 Z m 0,-43.500001 h 71.249999 v -27 H 74.337891 Z"
     id="text2"
     style="font-weight:bold;font-size:192px;font-family:Helvetica;-inkscape-font-specification:'Helvetica Bold';white-space:pre;fill:#ffffff;stroke-width:0.288;fill-opacity:1"
     transform="matrix(5.7004626,0,0,5.7004626,-39.194721,-280.13947)"
     aria-label="月" />
  <g
     inkscape:groupmode="layer"
     id="layer1"
     inkscape:label="Layer 1">
    <path
       d="m 61.115234,199.22266 h -17.25 V 54.472656 H 161.61523 V 196.22266 h -17.25 v -10.5 H 61.115234 Z m 83.249996,-87.75 V 68.722656 H 61.115234 v 42.750004 z m 0,60 v -45.75 H 61.115234 v 45.75 z"
       id="text3"
       style="font-weight:bold;font-size:192px;font-family:Helvetica;-inkscape-font-specification:'Helvetica Bold';white-space:pre;display:none;fill:#101010;stroke-width:0.288"
       transform="matrix(6.4684006,0,0,6.4684006,-164.56498,-320.50144)"
       aria-label="日" />
  </g>
</svg>
