<?xml version="1.0" encoding="utf-8"?>
<svg xmlns="http://www.w3.org/2000/svg" width="6.4in" height="3.6in" viewBox="0 0 1126 1015" preserveAspectRatio="none">
  <path id="Selección" stroke="black" d="M 545.852 15.689 C 568.389 8.74 571.317 26.484 571.333 43.814 C 571.333 43.814 571.333 118.161 571.333 118.161 C 571.333 136.006 573.445 147.49 566.199 164.308 C 562.135 173.793 560.263 187.406 550.682 192.432 C 537.374 199.458 526.256 187.765 525.345 174.562 C 524.129 157.385 535.295 142.618 535.438 118.161 C 535.438 118.161 535.438 41.249 535.438 41.249 C 535.55 28.125 534.974 24.124 545.852 15.689 Z M 120.279 115.675 C 144.661 107.931 156.862 136.081 174.195 148.49 C 193.012 162.001 215.957 181.305 229.415 200.2 C 229.415 200.2 246.9 225.838 246.9 225.838 C 246.9 225.838 262.386 243.783 262.386 243.783 C 262.386 243.783 297.764 289.136 297.764 289.136 C 307.584 297.622 314.045 292.98 322.274 299.159 C 333.042 307.236 331.605 321.95 319.941 328.335 C 315.3 330.871 309.865 330.847 304.713 330.95 C 280.665 331.334 277.69 325.001 261.182 307.876 C 248.491 294.724 239.31 279.085 228.237 264.729 C 228.237 264.729 216.111 251.243 216.111 251.243 C 216.111 251.243 193.654 220.709 193.654 220.709 C 173.938 197.175 159.786 190.123 140.634 171.898 C 125.534 157.513 95.13 135.234 120.279 115.675 Z M 930.358 149.003 C 953.073 142.055 964.893 162.975 945.635 192.509 C 916.203 237.604 883.827 280.137 845.644 318.13 C 838.271 325.489 824.883 339.46 814.885 342.28 C 801.48 346.075 789.948 333.871 792.667 320.695 C 795.178 308.645 825.106 283.931 835.28 272.701 C 835.28 272.701 848.892 254.449 848.892 254.449 C 848.892 254.449 861.449 240.988 861.449 240.988 C 861.449 240.988 896.8 192.509 896.8 192.509 C 907.021 177.459 915.307 159.823 930.358 149.003 Z M 481.612 302.005 C 481.612 302.005 602.092 300.185 602.092 300.185 C 624.119 300.236 629.222 303.953 648.257 314.824 C 648.257 314.824 668.635 327.232 668.635 327.232 C 676.281 333.411 678.809 339.05 684.775 346.331 C 702.307 367.636 706.737 374.738 717.006 400.168 C 717.006 400.168 723.869 415.552 723.869 415.552 C 723.869 415.552 726.364 428.37 726.364 428.37 C 730.459 443.778 735.049 441.238 735.418 461.697 C 735.418 461.697 735.418 566.81 735.418 566.81 C 735.37 592.601 729.244 598.267 721.981 620.648 C 719.998 626.724 720.174 633.134 717.406 638.596 C 711.76 649.798 691.653 665.334 682.295 674.922 C 666.22 691.406 656.271 703.25 635.428 715.172 C 635.428 715.172 617.481 723.864 617.481 723.864 C 611.402 727.273 606.188 732.143 599.533 734.528 C 586.401 739.243 572.116 739.552 558.52 741.81 C 542.284 744.475 549.963 746.218 527.761 746.269 C 527.761 746.269 432.905 746.269 432.905 746.269 C 410.671 746.218 417.933 745.551 399.57 738.118 C 362.679 723.17 357.678 709.097 334.171 679.614 C 329.401 673.665 320.684 665.231 317.582 659.104 C 317.582 659.104 305.302 620.648 305.302 620.648 C 304.816 615.982 304.788 612.52 305.302 607.831 C 304.327 583.449 303.636 592.421 300.252 571.938 C 300.252 571.938 298.918 556.554 298.918 556.554 C 296.253 540.327 294.509 547.993 294.457 525.791 C 294.457 525.791 294.457 482.208 294.457 482.208 C 294.558 466.672 304.276 424.448 311.044 410.45 C 315.172 401.988 319.555 399.836 322.606 394.325 C 327.041 386.299 323.761 377.044 334.118 364.611 C 339.245 358.433 374.728 327.541 381.624 324.053 C 389.801 319.924 394.771 321.538 404.705 317.798 C 422.715 311.004 433.352 305.439 453.412 305.311 C 467.376 305.208 467.792 305.953 481.612 302.005 Z M 499.559 336.666 C 483.1 341.742 485.692 341.1 468.8 341.202 C 447.366 341.357 441.431 346.638 422.636 353.689 C 412.063 357.69 406.72 355.612 399.57 359.201 C 394.419 361.791 368.779 385.684 365.216 390.633 C 358.884 399.477 363.038 406.4 358.499 415.526 C 358.499 415.526 345.322 433.934 345.322 433.934 C 337.887 448.496 330.375 486.208 330.347 502.717 C 330.347 502.717 340.605 592.447 340.605 592.447 C 340.962 613.007 351.961 637.826 364.088 653.975 C 382.957 679.1 386.649 690.047 417.518 702.968 C 432.617 709.275 431.209 710.275 448.277 710.378 C 448.277 710.378 517.491 710.378 517.491 710.378 C 534.127 710.095 531.343 707.866 543.132 705.917 C 569.83 701.481 567.894 704.38 594.415 692.304 C 594.415 692.304 609.786 685.997 609.786 685.997 C 609.786 685.997 639.41 663.565 639.41 663.565 C 639.41 663.565 653.519 646.337 653.519 646.337 C 662.142 637.39 674.154 630.826 680.28 620.597 C 687.526 608.574 699.267 568.501 699.524 553.992 C 699.524 553.992 699.524 479.643 699.524 479.643 C 699.363 455.008 689.653 437.523 680.808 415.552 C 671.883 393.401 657.519 368.431 637.555 354.51 C 604.892 331.693 585.201 336.076 548.266 336.666 C 533.807 336.076 513.236 335.127 499.559 336.666 Z M 1071.27 497.256 C 1078.74 495.232 1087.06 493.745 1094.18 497.256 C 1106.69 504.461 1107.47 520.177 1094.18 528.432 C 1084.24 534.612 1050.89 539.481 1037.93 541.814 C 1037.93 541.814 1004.6 550.274 1004.6 550.274 C 1004.6 550.274 978.971 551.76 978.971 551.76 C 960.255 553.837 972.667 556.042 940.516 556.554 C 920.681 556.889 924.633 561.529 902.046 561.684 C 902.046 561.684 837.967 561.684 837.967 561.684 C 830.385 561.657 821.684 562.375 815.268 557.581 C 804.488 549.531 805.943 534.789 817.605 528.406 C 823.266 525.303 831.601 525.791 837.967 525.791 C 837.967 525.791 881.539 525.791 881.539 525.791 C 906.238 525.74 899.743 522.689 914.874 520.663 C 914.874 520.663 940.516 520.663 940.516 520.663 C 940.516 520.663 958.464 516.202 958.464 516.202 C 958.464 516.202 981.53 514.87 981.53 514.87 C 981.53 514.87 1020 505.922 1020 505.922 C 1020 505.922 1045.63 500.82 1045.63 500.82 C 1057.93 498.769 1053.21 502.001 1071.27 497.256 Z M 197.037 522.483 C 211.061 519.459 230.98 520.56 245.748 520.663 C 251.542 520.716 258.309 520.407 263.538 523.279 C 276.382 530.303 276.382 546.917 263.538 553.939 C 256.131 557.992 234.517 556.426 225.238 556.554 C 225.238 556.554 168.835 565.862 168.835 565.862 C 168.835 565.862 140.634 568.015 140.634 568.015 C 140.634 568.015 117.562 576.885 117.562 576.885 C 117.562 576.885 102.18 576.885 102.18 576.885 C 102.18 576.885 81.67 582.039 81.67 582.039 C 81.67 582.039 38.086 582.039 38.086 582.039 C 31.73 582.193 23.396 582.68 17.731 579.577 C 6.066 573.193 4.604 558.454 15.398 550.402 C 21.807 545.608 30.496 546.325 38.086 545.711 C 46.855 546.276 60.724 546.864 68.851 545.711 C 68.851 545.711 84.235 541.507 84.235 541.507 C 84.235 541.507 102.18 539.968 102.18 539.968 C 102.18 539.968 125.253 531.124 125.253 531.124 C 125.253 531.124 150.889 531.124 150.889 531.124 C 150.889 531.124 197.037 522.483 197.037 522.483 Z M 271.384 722.864 C 279.742 720.53 291.509 718.915 299.432 722.864 C 310.02 729.041 312.455 741.834 303.916 750.602 C 303.916 750.602 263.693 773.854 263.693 773.854 C 263.693 773.854 214.983 814.004 214.983 814.004 C 214.983 814.004 166.272 840.384 166.272 840.384 C 157.326 846.204 149.044 853.945 138.072 855.586 C 124.485 857.637 112.947 847.228 115.844 833.435 C 118.459 821.002 142.838 807.747 153.453 800.98 C 153.453 800.98 196.603 778.112 196.603 778.112 C 196.603 778.112 217.545 757.191 217.545 757.191 C 229.314 747.269 257.309 728.913 271.384 722.864 Z M 720.174 728.374 C 735.61 723.095 738.857 727.375 753.349 730.271 C 787.468 737.091 811.574 759.857 837.967 780.853 C 850.588 790.904 863.96 797.442 873.846 810.415 C 880.516 819.13 896.736 834.59 898.655 843.692 C 901.615 858.1 887.473 871.738 871.287 863.74 C 861.321 858.843 848.22 842.767 839.822 834.512 C 839.822 834.512 791.819 794.237 791.819 794.237 C 783.437 788.108 757.412 772.368 748.247 768.932 C 737.529 764.908 728.875 767.574 717.855 757.884 C 706.13 747.578 709.073 737.065 720.174 728.374 Z M 474.078 789.93 C 495.176 783.416 504.374 802.466 504.694 820.616 C 504.694 820.616 504.694 866.764 504.694 866.764 C 504.342 887.042 499.607 881.735 499.559 907.784 C 499.495 930.881 500.503 928.497 495.576 951.368 C 491.994 968.056 493.449 985.311 473.934 994.873 C 460.978 1001.23 448.293 990.667 448.757 977.002 C 449.076 967.133 455.859 959.57 457.858 948.802 C 462.434 924.318 463.505 912.117 463.664 887.273 C 463.84 860.842 469.328 872.89 468.8 838.561 C 468.432 818.079 455.14 804.646 474.078 789.93 Z" style="stroke-width: 0px; fill: rgb(16, 16, 16);"/>
</svg>