<?xml version="1.0" encoding="utf-8"?>
<svg xmlns="http://www.w3.org/2000/svg" width="3.33333in" height="3.33333in" viewBox="0 0 1000 1000">
  <path id="Selección" stroke="black" d="M 435.023 74.449 C 486.073 62.6 526.313 112.812 563.392 140.314 C 563.392 140.314 647.325 201.436 647.325 201.436 C 647.325 201.436 849.752 380.511 849.752 380.511 C 882.832 408.85 891.423 417.54 928.749 441.683 C 944.252 451.705 962.42 460.84 966.617 480.588 C 971.9 505.77 949.682 529.566 923.812 522.061 C 909.296 517.865 839.385 466.912 825.067 454.965 C 825.067 454.965 760.437 392.755 760.437 392.755 C 760.437 392.755 696.697 340.963 696.697 340.963 C 696.697 340.963 642.388 288.875 642.388 288.875 C 642.388 288.875 558.455 224.444 558.455 224.444 C 558.455 224.444 494.27 175.86 494.27 175.86 C 486.863 169.492 469.633 153.889 460.153 152.805 C 448.057 151.372 437.244 166.432 430.084 174.528 C 430.084 174.528 365.851 248.538 365.851 248.538 C 365.851 248.538 257.282 362.094 257.282 362.094 C 257.282 362.094 160.659 456.741 160.659 456.741 C 160.659 456.741 94.155 534.899 94.155 534.899 C 82.353 547.193 62.16 569.756 44.98 572.571 C 24.193 575.978 2.816 556.178 8.691 534.899 C 12.048 522.851 32.536 500.88 41.276 490.464 C 41.276 490.464 114.101 406.53 114.101 406.53 C 114.101 406.53 187.963 337.211 187.963 337.211 C 187.963 337.211 267.995 248.538 267.995 248.538 C 267.995 248.538 317.861 198.967 317.861 198.967 C 348.225 165.098 398.091 93.755 435.023 74.449 Z M 262.219 846.341 C 262.219 846.341 346.152 846.341 346.152 846.341 C 346.152 846.341 435.023 855.821 435.023 855.821 C 435.023 855.821 523.894 860.758 523.894 860.758 C 523.894 860.758 588.078 860.758 588.078 860.758 C 588.078 860.758 681.886 852.957 681.886 852.957 C 691.859 851.476 706.078 850.439 713.483 842.984 C 723.359 833.06 721.532 809.904 721.383 796.574 C 721.383 796.574 716.446 732.39 716.446 732.39 C 716.446 732.39 711.608 589.209 711.608 589.209 C 711.46 572.422 705.585 532.034 711.608 520.383 C 725.976 492.932 762.017 497.228 772.73 525.124 C 776.929 535.985 775.298 556.968 776.137 569.459 C 776.137 569.459 780.433 604.02 780.433 604.02 C 780.433 604.02 780.433 683.016 780.433 683.016 C 780.433 683.016 790.061 757.075 790.061 757.075 C 792.381 789.81 788.036 801.857 786.013 831.134 C 784.433 853.747 788.036 880.409 772.928 899.565 C 755.204 922.078 690.329 924.596 662.136 924.942 C 662.136 924.942 435.023 924.942 435.023 924.942 C 435.023 924.942 321.466 915.068 321.466 915.068 C 321.466 915.068 237.532 915.068 237.532 915.068 C 213.734 914.623 190.085 907.76 185.197 880.508 C 182.927 867.769 191.763 840.021 194.776 826.197 C 201.342 795.833 207.76 763.445 207.908 732.39 C 207.908 732.39 202.526 604.02 202.526 604.02 C 202.526 604.02 198.034 554.648 198.034 554.648 C 197.886 539.194 196.306 518.902 205.933 506.015 C 222.967 483.156 254.269 489.377 264.194 515.248 C 267.698 524.284 267.255 543.688 268.537 554.648 C 268.537 554.648 275.45 658.33 275.45 658.33 C 275.45 658.33 272.093 707.703 272.093 707.703 C 271.994 760.63 276.044 793.759 262.219 846.341 Z" style="stroke-width: 0px; fill: rgb(67, 115, 110);"/>
</svg>