<?xml version="1.0" encoding="utf-8"?>
<svg xmlns="http://www.w3.org/2000/svg" width="0in" height="3.6in" viewBox="0 0 894 778" preserveAspectRatio="none">
  <path id="Selección" stroke="black" d="M 212.486 168.282 C 214.031 145.54 225.985 124.832 232.192 103.228 C 232.192 103.228 235.39 84.254 235.39 84.254 C 235.39 84.254 248.13 35.464 248.13 35.464 C 254.961 19.254 274.775 7.653 285.618 27.495 C 291.984 39.123 285.292 53.435 283.151 65.28 C 283.151 65.28 269.842 122.202 269.842 122.202 C 262.822 141.475 256.587 145.025 255.855 168.282 C 276.781 159.446 301.284 162.915 323.624 162.861 C 323.624 162.861 396.804 151.856 396.804 151.856 C 396.804 151.856 440.174 151.856 440.174 151.856 C 440.174 151.856 461.864 146.435 461.864 146.435 C 461.864 146.435 486.254 146.435 486.254 146.435 C 529.084 138.9 510.844 136.596 562.154 135.755 C 580.284 135.457 589.444 128.084 600.044 131.96 C 613.194 136.812 618.374 153.13 605.114 164.081 C 592.074 174.896 575.134 173.459 559.444 173.703 C 541.764 174.002 544.644 176.414 532.334 178.42 C 532.334 178.42 513.364 179.829 513.364 179.829 C 513.364 179.829 494.384 184.546 494.384 184.546 C 494.384 184.546 472.704 184.546 472.704 184.546 C 456.714 186.687 463.564 189.913 437.464 189.967 C 437.464 189.967 413.064 189.967 413.064 189.967 C 413.064 189.967 342.594 200.809 342.594 200.809 C 342.594 200.809 293.804 200.809 293.804 200.809 C 273.637 201.162 277.459 206.23 239.592 206.23 C 239.592 206.23 234.008 244.179 234.008 244.179 C 234.008 244.179 234.008 279.416 234.008 279.416 C 234.008 279.416 228.75 314.654 228.75 314.654 C 228.75 314.654 228.75 379.708 228.75 379.708 C 246.612 370.302 249.702 376.699 266.698 373.067 C 266.698 373.067 280.251 369.218 280.251 369.218 C 280.251 369.218 380.544 369.218 380.544 369.218 C 403.984 368.92 395.914 370.736 413.064 374.124 C 413.064 374.124 426.624 374.124 426.624 374.124 C 441.884 377.051 453.074 392.8 464.324 392.285 C 475.114 391.797 477.584 376.997 494.384 374.91 C 497.344 374.287 502.334 374.422 505.224 374.91 C 535.264 382.581 511.784 412.262 511.354 414.945 C 510.194 418.388 510.564 419.797 511.354 423.077 C 514.634 432.212 532.744 454.303 537.104 469.157 C 537.104 469.157 537.104 569.449 537.104 569.449 C 537.704 604.117 526.344 613.604 508.074 639.924 C 508.074 639.924 495.824 658.898 495.824 658.898 C 488.554 668.466 449.714 707.255 440.174 713.76 C 430.444 720.401 408.244 733.845 396.804 734.171 C 383.494 734.55 373.194 723.816 376.014 710.399 C 378.754 697.442 417.384 674.05 429.334 665.105 C 453.134 647.297 458.584 635.207 474.624 612.818 C 490.104 591.215 499.614 581.429 499.804 553.185 C 499.974 526.892 503.814 498.594 491.674 474.578 C 488.744 468.805 482.514 455.712 475.494 454.574 C 469.534 453.598 464.544 462.543 461.154 466.474 C 446.054 484.038 436.434 486.125 421.204 500.952 C 421.204 500.952 369.704 552.48 369.704 552.48 C 369.704 552.48 318.204 584.14 318.204 584.14 C 298.224 595.985 296.024 601.162 272.119 610.107 C 277.621 617.561 283.232 624.609 282.419 634.503 C 281.091 651.118 263.852 657.57 250.57 648.76 C 241.543 642.77 237.559 633.473 234.171 623.66 C 218.802 632.226 199.665 636.183 182.67 641.008 C 182.67 641.008 131.169 655.835 131.169 655.835 C 131.169 655.835 71.536 655.835 71.536 655.835 C 41.53 656.133 43.535 650.143 31.067 626.371 C 27.055 618.727 21.227 613.116 18.706 604.686 C 18.706 604.686 17.324 523.369 17.324 523.369 C 17.351 511.442 17.161 504.774 22.366 493.552 C 28.492 480.352 56.492 452.568 68.825 444.409 C 68.825 444.409 85.089 435.193 85.089 435.193 C 85.089 435.193 98.642 425.679 98.642 425.679 C 98.642 425.679 123.037 414.945 123.037 414.945 C 148.083 402.314 161.934 394.209 190.801 390.55 C 190.801 390.55 190.801 292.969 190.801 292.969 C 190.801 292.969 196.223 244.179 196.223 244.179 C 196.25 226.885 194.677 222.738 201.644 206.23 C 201.644 206.23 128.458 206.23 128.458 206.23 C 128.458 206.23 52.562 195.388 52.562 195.388 C 45.297 195.361 34.726 196.12 28.329 192.623 C 15.996 185.874 14.451 170.288 25.862 161.777 C 32.639 156.708 41.828 157.467 49.851 157.792 C 49.851 157.792 79.667 157.792 79.667 157.792 C 79.667 157.792 95.931 162.156 95.931 162.156 C 95.931 162.156 114.905 163.566 114.905 163.566 C 131.982 166.358 123.985 168.228 147.432 168.282 C 147.432 168.282 212.486 168.282 212.486 168.282 Z M 684.294 290.313 C 707.274 282.723 723.184 303.784 736.844 318.936 C 747.394 330.619 759.024 341.299 766.774 355.312 C 766.774 355.312 786.834 436.63 786.834 436.63 C 786.834 436.63 797.134 461.025 797.134 461.025 C 797.134 461.025 799.194 479.999 799.194 479.999 C 799.194 479.999 808.114 515.237 808.114 515.237 C 808.114 515.237 810.194 536.922 810.194 536.922 C 810.194 536.922 822.344 566.738 822.344 566.738 C 825.104 572.349 829.574 577.011 831.554 583.001 C 831.554 583.001 833.884 601.976 833.884 601.976 C 833.884 601.976 839.934 615.528 839.934 615.528 C 839.934 615.528 847.684 639.924 847.684 639.924 C 847.684 639.924 866.194 677.872 866.194 677.872 C 866.194 677.872 878.044 715.82 878.044 715.82 C 883.574 728.614 890.209 744.986 873.704 753.687 C 858.934 761.493 843.534 744.254 838.194 732.084 C 838.194 732.084 828.494 699.557 828.494 699.557 C 828.494 699.557 818.434 677.872 818.434 677.872 C 818.434 677.872 805.504 645.345 805.504 645.345 C 801.874 636.915 799.024 622.955 791.734 617.074 C 782.954 610.162 774.634 615.041 765.444 617.074 C 765.444 617.074 746.474 618.944 746.474 618.944 C 729.314 621.763 737.414 623.606 713.944 624.013 C 713.944 624.013 651.604 624.013 651.604 624.013 C 651.604 624.013 638.044 627.862 638.044 627.862 C 628.074 630.003 617.234 627.401 610.994 637.62 C 607.604 643.149 599.744 684.892 598.064 694.135 C 596.254 704.137 597.254 712.73 586.384 719.019 C 582.264 720.618 577.464 721.079 573.044 719.019 C 558.194 714.519 559.254 698.689 559.444 686.004 C 559.444 686.004 567.704 637.213 567.704 637.213 C 567.704 637.213 579.174 607.397 579.174 607.397 C 579.174 607.397 589.984 572.159 589.984 572.159 C 589.984 572.159 593.544 555.896 593.544 555.896 C 593.544 555.896 601.234 539.632 601.234 539.632 C 601.234 539.632 604.034 526.079 604.034 526.079 C 604.034 526.079 614.654 488.131 614.654 488.131 C 614.654 488.131 644.984 404.103 644.984 404.103 C 644.984 404.103 658.244 349.891 658.244 349.891 C 658.244 349.891 666.644 328.207 666.644 328.207 C 671.114 312.485 670.194 301.263 684.294 290.313 Z M 708.524 347.181 C 693.644 360.923 691.174 391.716 684.124 412.235 C 684.124 412.235 675.344 433.919 675.344 433.919 C 675.344 433.919 672.064 450.183 672.064 450.183 C 672.064 450.183 662.444 479.999 662.444 479.999 C 662.444 479.999 648.644 512.526 648.644 512.526 C 648.644 512.526 644.254 534.211 644.254 534.211 C 639.864 551.017 631.024 569.53 629.914 585.712 C 629.914 585.712 697.684 585.712 697.684 585.712 C 697.684 585.712 781.704 574.87 781.704 574.87 C 781.704 574.87 772.924 555.896 772.924 555.896 C 772.924 555.896 770.164 534.211 770.164 534.211 C 770.164 534.211 761.244 496.263 761.244 496.263 C 761.244 496.263 759.184 479.999 759.184 479.999 C 759.184 479.999 750.754 461.025 750.754 461.025 C 750.754 461.025 747.934 442.051 747.934 442.051 C 747.934 442.051 740.314 420.366 740.314 420.366 C 740.314 420.366 730.264 374.287 730.264 374.287 C 730.264 374.287 708.524 347.181 708.524 347.181 Z M 440.174 428.498 C 440.174 428.498 413.064 413.807 413.064 413.807 C 413.064 413.807 394.094 411.53 394.094 411.53 C 394.094 411.53 375.124 406.976 375.124 406.976 C 375.124 406.976 312.774 406.976 312.774 406.976 C 312.774 406.976 277.54 412.397 277.54 412.397 C 277.54 412.397 258.566 412.397 258.566 412.397 C 258.566 412.397 228.912 417.656 228.912 417.656 C 228.912 417.656 228.912 455.604 228.912 455.604 C 231.081 473.413 233.954 463.112 234.171 493.552 C 234.333 517.649 238.752 511.74 243.441 526.079 C 243.441 526.079 246.26 545.053 246.26 545.053 C 246.26 545.053 255.855 572.159 255.855 572.159 C 255.855 572.159 293.804 551.613 293.804 551.613 C 293.804 551.613 337.174 525.293 337.174 525.293 C 337.174 525.293 396.804 469.536 396.804 469.536 C 396.804 469.536 414.204 456.905 414.204 456.905 C 414.204 456.905 440.174 433.919 440.174 433.919 C 440.174 433.919 440.174 428.498 440.174 428.498 Z M 190.964 433.919 C 163.939 434.76 158.274 444.436 136.59 455.469 C 136.59 455.469 117.616 463.546 117.616 463.546 C 117.616 463.546 101.352 473.901 101.352 473.901 C 72.728 490.543 55.326 504.801 55.923 539.632 C 55.245 549.499 54.54 577.824 55.923 585.712 C 59.88 598.723 66.955 602.003 71.536 617.887 C 71.536 617.887 114.905 617.887 114.905 617.887 C 114.905 617.887 131.169 613.496 131.169 613.496 C 131.169 613.496 147.432 610.758 147.432 610.758 C 147.432 610.758 163.696 604.036 163.696 604.036 C 163.696 604.036 182.67 599.916 182.67 599.916 C 182.67 599.916 217.907 585.712 217.907 585.712 C 217.907 585.712 205.547 542.343 205.547 542.343 C 205.547 542.343 196.223 512.526 196.223 512.526 C 196.223 512.526 190.964 471.868 190.964 471.868 C 190.964 471.868 190.964 433.919 190.964 433.919 Z" style="fill: rgb(16, 16, 16); stroke-width: 0px;"/>
</svg>