<?xml version="1.0" encoding="UTF-8" standalone="no"?>
<svg
   height="72"
   viewBox="0 0 72 72"
   width="72"
   version="1.1"
   id="svg2"
   sodipodi:docname="linkedinDark.svg"
   inkscape:version="1.4 (86a8ad7, 2024-10-11)"
   xmlns:inkscape="http://www.inkscape.org/namespaces/inkscape"
   xmlns:sodipodi="http://sodipodi.sourceforge.net/DTD/sodipodi-0.dtd"
   xmlns="http://www.w3.org/2000/svg"
   xmlns:svg="http://www.w3.org/2000/svg">
  <defs
     id="defs2" />
  <sodipodi:namedview
     id="namedview2"
     pagecolor="#ffffff"
     bordercolor="#000000"
     borderopacity="0.25"
     inkscape:showpageshadow="2"
     inkscape:pageopacity="0.0"
     inkscape:pagecheckerboard="0"
     inkscape:deskcolor="#d1d1d1"
     inkscape:zoom="7.6805556"
     inkscape:cx="36"
     inkscape:cy="36"
     inkscape:window-width="1366"
     inkscape:window-height="697"
     inkscape:window-x="-8"
     inkscape:window-y="-8"
     inkscape:window-maximized="1"
     inkscape:current-layer="svg2" />
  <g
     fill="none"
     fill-rule="evenodd"
     id="g2">
    <path
       id="path1"
       style="stroke:none;stroke-opacity:1;fill:#ffffff;fill-opacity:1"
       d="M 8 0 C 3.581722 8.116245e-16 0 3.581722 0 8 L 0 64 C 5.41083e-16 68.418278 3.581722 72 8 72 L 64 72 C 68.418278 72 72 68.418278 72 64 L 72 8 C 72 3.581722 68.418278 -1.1842379e-15 64 0 L 8 0 z M 16.203125 10.001953 C 17.396833 9.9514829 18.599031 10.236391 19.640625 10.925781 C 23.217589 12.945238 23.741667 18.470405 20.617188 21.132812 C 19.467403 22.194755 17.915553 22.80261 16.349609 22.794922 C 12.203603 22.945991 8.9158231 18.391804 10.285156 14.494141 C 10.996549 11.849765 13.576967 10.112988 16.203125 10.001953 z M 49.730469 26.248047 C 50.718316 26.256227 51.704918 26.372428 52.664062 26.603516 C 57.182721 27.387249 60.73818 31.226962 61.548828 35.685547 C 62.318574 39.739714 61.885521 43.891799 62 47.994141 L 62 62 L 51.316406 62 C 51.286116 55.486132 51.378295 48.968867 51.265625 42.457031 C 51.212165 39.651714 49.638748 36.382202 46.527344 36.097656 C 43.579021 35.552281 40.265975 37.162227 39.458984 40.177734 C 38.565637 43.363565 39.058628 46.711121 38.929688 49.978516 L 38.929688 62 L 28.632812 62 L 28.632812 27.333984 L 38.929688 27.333984 L 38.929688 32.001953 C 41.143778 28.232536 45.449796 26.212599 49.730469 26.248047 z M 11.033203 27.333984 L 21.769531 27.333984 L 21.769531 62 L 11.033203 62 L 11.033203 27.333984 z " />
  </g>
</svg>
