<?xml version="1.0" encoding="UTF-8" standalone="no"?>
<!DOCTYPE svg PUBLIC "-//W3C//DTD SVG 20010904//EN"
              "http://www.w3.org/TR/2001/REC-SVG-20010904/DTD/svg10.dtd">

<svg xmlns="http://www.w3.org/2000/svg"
     width="6.4in" height="3.6in"
     viewBox="0 0 1920 1080">
  <path id="Selección"
        fill="none" stroke="black" stroke-width="1"
        d="M 801.00,283.00
           C 801.57,274.61 805.98,266.97 808.27,259.00
             808.27,259.00 809.45,252.00 809.45,252.00
             809.45,252.00 814.15,234.00 814.15,234.00
             816.67,228.02 823.98,223.74 827.98,231.06
             830.33,235.35 827.86,240.63 827.07,245.00
             827.07,245.00 822.16,266.00 822.16,266.00
             819.57,273.11 817.27,274.42 817.00,283.00
             824.72,279.74 833.76,281.02 842.00,281.00
             842.00,281.00 869.00,276.94 869.00,276.94
             869.00,276.94 885.00,276.94 885.00,276.94
             885.00,276.94 893.00,274.94 893.00,274.94
             893.00,274.94 902.00,274.94 902.00,274.94
             917.80,272.16 911.07,271.31 930.00,271.00
             936.69,270.89 940.07,268.17 943.98,269.60
             948.83,271.39 950.74,277.41 945.85,281.45
             941.04,285.44 934.79,284.91 929.00,285.00
             922.48,285.11 923.54,286.00 919.00,286.74
             919.00,286.74 912.00,287.26 912.00,287.26
             912.00,287.26 905.00,289.00 905.00,289.00
             905.00,289.00 897.00,289.00 897.00,289.00
             891.10,289.79 893.63,290.98 884.00,291.00
             884.00,291.00 875.00,291.00 875.00,291.00
             875.00,291.00 849.00,295.00 849.00,295.00
             849.00,295.00 831.00,295.00 831.00,295.00
             823.56,295.13 824.97,297.00 811.00,297.00
             811.00,297.00 808.94,311.00 808.94,311.00
             808.94,311.00 808.94,324.00 808.94,324.00
             808.94,324.00 807.00,337.00 807.00,337.00
             807.00,337.00 807.00,361.00 807.00,361.00
             813.59,357.53 814.73,359.89 821.00,358.55
             821.00,358.55 826.00,357.13 826.00,357.13
             826.00,357.13 863.00,357.13 863.00,357.13
             871.65,357.02 868.67,357.69 875.00,358.94
             875.00,358.94 880.00,358.94 880.00,358.94
             885.63,360.02 889.76,365.83 893.91,365.64
             897.89,365.46 898.80,360.00 905.00,359.23
             906.09,359.00 907.93,359.05 909.00,359.23
             920.08,362.06 911.42,373.01 911.26,374.00
             910.83,375.27 910.97,375.79 911.26,377.00
             912.47,380.37 919.15,388.52 920.76,394.00
             920.76,394.00 920.76,431.00 920.76,431.00
             920.98,443.79 916.79,447.29 910.05,457.00
             910.05,457.00 905.53,464.00 905.53,464.00
             902.85,467.53 888.52,481.84 885.00,484.24
             881.41,486.69 873.22,491.65 869.00,491.77
             864.09,491.91 860.29,487.95 861.33,483.00
             862.34,478.22 876.59,469.59 881.00,466.29
             889.78,459.72 891.79,455.26 897.71,447.00
             903.42,439.03 906.93,435.42 907.00,425.00
             907.06,415.30 908.48,404.86 904.00,396.00
             902.92,393.87 900.62,389.04 898.03,388.62
             895.83,388.26 893.99,391.56 892.74,393.01
             887.17,399.49 883.62,400.26 878.00,405.73
             878.00,405.73 859.00,424.74 859.00,424.74
             859.00,424.74 840.00,436.42 840.00,436.42
             832.63,440.79 831.82,442.70 823.00,446.00
             825.03,448.75 827.10,451.35 826.80,455.00
             826.31,461.13 819.95,463.51 815.05,460.26
             811.72,458.05 810.25,454.62 809.00,451.00
             803.33,454.16 796.27,455.62 790.00,457.40
             790.00,457.40 771.00,462.87 771.00,462.87
             771.00,462.87 749.00,462.87 749.00,462.87
             737.93,462.98 738.67,460.77 734.07,452.00
             732.59,449.18 730.44,447.11 729.51,444.00
             729.51,444.00 729.00,414.00 729.00,414.00
             729.01,409.60 728.94,407.14 730.86,403.00
             733.12,398.13 743.45,387.88 748.00,384.87
             748.00,384.87 754.00,381.47 754.00,381.47
             754.00,381.47 759.00,377.96 759.00,377.96
             759.00,377.96 768.00,374.00 768.00,374.00
             777.24,369.34 782.35,366.35 793.00,365.00
             793.00,365.00 793.00,329.00 793.00,329.00
             793.00,329.00 795.00,311.00 795.00,311.00
             795.01,304.62 794.43,303.09 797.00,297.00
             797.00,297.00 770.00,297.00 770.00,297.00
             770.00,297.00 742.00,293.00 742.00,293.00
             739.32,292.99 735.42,293.27 733.06,291.98
             728.51,289.49 727.94,283.74 732.15,280.60
             734.65,278.73 738.04,279.01 741.00,279.13
             741.00,279.13 752.00,279.13 752.00,279.13
             752.00,279.13 758.00,280.74 758.00,280.74
             758.00,280.74 765.00,281.26 765.00,281.26
             771.30,282.29 768.35,282.98 777.00,283.00
             777.00,283.00 801.00,283.00 801.00,283.00 Z
           M 975.06,328.02
           C 983.54,325.22 989.41,332.99 994.45,338.58
             998.34,342.89 1002.63,346.83 1005.49,352.00
             1005.49,352.00 1012.89,382.00 1012.89,382.00
             1012.89,382.00 1016.69,391.00 1016.69,391.00
             1016.69,391.00 1017.45,398.00 1017.45,398.00
             1017.45,398.00 1020.74,411.00 1020.74,411.00
             1020.74,411.00 1021.51,419.00 1021.51,419.00
             1021.51,419.00 1025.99,430.00 1025.99,430.00
             1027.01,432.07 1028.66,433.79 1029.39,436.00
             1029.39,436.00 1030.25,443.00 1030.25,443.00
             1030.25,443.00 1032.48,448.00 1032.48,448.00
             1032.48,448.00 1035.34,457.00 1035.34,457.00
             1035.34,457.00 1042.17,471.00 1042.17,471.00
             1042.17,471.00 1046.54,485.00 1046.54,485.00
             1048.58,489.72 1051.03,495.76 1044.94,498.97
             1039.49,501.85 1033.81,495.49 1031.84,491.00
             1031.84,491.00 1028.26,479.00 1028.26,479.00
             1028.26,479.00 1024.55,471.00 1024.55,471.00
             1024.55,471.00 1019.78,459.00 1019.78,459.00
             1018.44,455.89 1017.39,450.74 1014.70,448.57
             1011.46,446.02 1008.39,447.82 1005.00,448.57
             1005.00,448.57 998.00,449.26 998.00,449.26
             991.67,450.30 994.66,450.98 986.00,451.13
             986.00,451.13 963.00,451.13 963.00,451.13
             963.00,451.13 958.00,452.55 958.00,452.55
             954.32,453.34 950.32,452.38 948.02,456.15
             946.77,458.19 943.87,473.59 943.25,477.00
             942.58,480.69 942.95,483.86 938.94,486.18
             937.42,486.77 935.65,486.94 934.02,486.18
             928.54,484.52 928.93,478.68 929.00,474.00
             929.00,474.00 932.05,456.00 932.05,456.00
             932.05,456.00 936.28,445.00 936.28,445.00
             936.28,445.00 940.27,432.00 940.27,432.00
             940.27,432.00 941.58,426.00 941.58,426.00
             941.58,426.00 944.42,420.00 944.42,420.00
             944.42,420.00 945.45,415.00 945.45,415.00
             945.45,415.00 949.37,401.00 949.37,401.00
             949.37,401.00 960.56,370.00 960.56,370.00
             960.56,370.00 965.45,350.00 965.45,350.00
             965.45,350.00 968.55,342.00 968.55,342.00
             970.20,336.20 969.86,332.06 975.06,328.02 Z
           M 984.00,349.00
           C 978.51,354.07 977.60,365.43 975.00,373.00
             975.00,373.00 971.76,381.00 971.76,381.00
             971.76,381.00 970.55,387.00 970.55,387.00
             970.55,387.00 967.00,398.00 967.00,398.00
             967.00,398.00 961.91,410.00 961.91,410.00
             961.91,410.00 960.29,418.00 960.29,418.00
             958.67,424.20 955.41,431.03 955.00,437.00
             955.00,437.00 980.00,437.00 980.00,437.00
             980.00,437.00 1011.00,433.00 1011.00,433.00
             1011.00,433.00 1007.76,426.00 1007.76,426.00
             1007.76,426.00 1006.74,418.00 1006.74,418.00
             1006.74,418.00 1003.45,404.00 1003.45,404.00
             1003.45,404.00 1002.69,398.00 1002.69,398.00
             1002.69,398.00 999.58,391.00 999.58,391.00
             999.58,391.00 998.54,384.00 998.54,384.00
             998.54,384.00 995.73,376.00 995.73,376.00
             995.73,376.00 992.02,359.00 992.02,359.00
             992.02,359.00 984.00,349.00 984.00,349.00 Z
           M 885.00,379.00
           C 885.00,379.00 875.00,373.58 875.00,373.58
             875.00,373.58 868.00,372.74 868.00,372.74
             868.00,372.74 861.00,371.06 861.00,371.06
             861.00,371.06 838.00,371.06 838.00,371.06
             838.00,371.06 825.00,373.06 825.00,373.06
             825.00,373.06 818.00,373.06 818.00,373.06
             818.00,373.06 807.06,375.00 807.06,375.00
             807.06,375.00 807.06,389.00 807.06,389.00
             807.86,395.57 808.92,391.77 809.00,403.00
             809.06,411.89 810.69,409.71 812.42,415.00
             812.42,415.00 813.46,422.00 813.46,422.00
             813.46,422.00 817.00,432.00 817.00,432.00
             817.00,432.00 831.00,424.42 831.00,424.42
             831.00,424.42 847.00,414.71 847.00,414.71
             847.00,414.71 869.00,394.14 869.00,394.14
             869.00,394.14 875.42,389.48 875.42,389.48
             875.42,389.48 885.00,381.00 885.00,381.00
             885.00,381.00 885.00,379.00 885.00,379.00 Z
           M 793.06,381.00
           C 783.09,381.31 781.00,384.88 773.00,388.95
             773.00,388.95 766.00,391.93 766.00,391.93
             766.00,391.93 760.00,395.75 760.00,395.75
             749.44,401.89 743.02,407.15 743.24,420.00
             742.99,423.64 742.73,434.09 743.24,437.00
             744.70,441.80 747.31,443.01 749.00,448.87
             749.00,448.87 765.00,448.87 765.00,448.87
             765.00,448.87 771.00,447.25 771.00,447.25
             771.00,447.25 777.00,446.24 777.00,446.24
             777.00,446.24 783.00,443.76 783.00,443.76
             783.00,443.76 790.00,442.24 790.00,442.24
             790.00,442.24 803.00,437.00 803.00,437.00
             803.00,437.00 798.44,421.00 798.44,421.00
             798.44,421.00 795.00,410.00 795.00,410.00
             795.00,410.00 793.06,395.00 793.06,395.00
             793.06,395.00 793.06,381.00 793.06,381.00 Z" />
</svg>
