<?xml version="1.0" encoding="UTF-8" standalone="no"?>
<!DOCTYPE svg PUBLIC "-//W3C//DTD SVG 20010904//EN"
              "http://www.w3.org/TR/2001/REC-SVG-20010904/DTD/svg10.dtd">

<svg xmlns="http://www.w3.org/2000/svg"
     width="6.4in" height="3.6in"
     viewBox="0 0 1920 1080">
  <path id="Selección"
        fill="none" stroke="black" stroke-width="1"
        d="M 969.06,202.03
           C 977.85,199.32 978.99,206.24 979.00,213.00
             979.00,213.00 979.00,242.00 979.00,242.00
             979.00,248.96 979.82,253.44 977.00,260.00
             975.41,263.70 974.68,269.01 970.94,270.97
             965.75,273.71 961.42,269.15 961.06,264.00
             960.59,257.30 964.94,251.54 965.00,242.00
             965.00,242.00 965.00,212.00 965.00,212.00
             965.04,206.88 964.82,205.32 969.06,202.03 Z
           M 803.06,241.03
           C 812.57,238.01 817.33,248.99 824.09,253.83
             831.43,259.10 840.38,266.63 845.63,274.00
             845.63,274.00 852.45,284.00 852.45,284.00
             852.45,284.00 858.49,291.00 858.49,291.00
             858.49,291.00 872.29,308.69 872.29,308.69
             876.12,312.00 878.64,310.19 881.85,312.60
             886.05,315.75 885.49,321.49 880.94,323.98
             879.13,324.97 877.01,324.96 875.00,325.00
             865.62,325.15 864.46,322.68 858.02,316.00
             853.07,310.87 849.49,304.77 845.17,299.17
             845.17,299.17 840.44,293.91 840.44,293.91
             840.44,293.91 831.68,282.00 831.68,282.00
             823.99,272.82 818.47,270.07 811.00,262.96
             805.11,257.35 793.25,248.66 803.06,241.03 Z
           M 1119.04,254.03
           C 1127.90,251.32 1132.51,259.48 1125.00,271.00
             1113.52,288.59 1100.89,305.18 1086.00,320.00
             1083.12,322.87 1077.90,328.32 1074.00,329.42
             1068.77,330.90 1064.27,326.14 1065.33,321.00
             1066.31,316.30 1077.98,306.66 1081.95,302.28
             1081.95,302.28 1087.26,295.16 1087.26,295.16
             1087.26,295.16 1092.16,289.91 1092.16,289.91
             1092.16,289.91 1105.95,271.00 1105.95,271.00
             1109.94,265.13 1113.17,258.25 1119.04,254.03 Z
           M 944.00,313.71
           C 944.00,313.71 991.00,313.00 991.00,313.00
             999.59,313.02 1001.58,314.47 1009.00,318.71
             1009.00,318.71 1016.95,323.55 1016.95,323.55
             1019.93,325.96 1020.92,328.16 1023.25,331.00
             1030.08,339.31 1031.81,342.08 1035.82,352.00
             1035.82,352.00 1038.50,358.00 1038.50,358.00
             1038.50,358.00 1039.47,363.00 1039.47,363.00
             1041.07,369.01 1042.86,368.02 1043.00,376.00
             1043.00,376.00 1043.00,417.00 1043.00,417.00
             1042.98,427.06 1040.59,429.27 1037.76,438.00
             1036.99,440.37 1037.06,442.87 1035.98,445.00
             1033.77,449.37 1025.93,455.43 1022.28,459.17
             1016.01,465.60 1012.13,470.22 1004.00,474.87
             1004.00,474.87 997.00,478.26 997.00,478.26
             994.63,479.59 992.59,481.49 990.00,482.42
             984.87,484.26 979.30,484.38 974.00,485.26
             967.67,486.30 970.66,486.98 962.00,487.00
             962.00,487.00 925.00,487.00 925.00,487.00
             916.33,486.98 919.16,486.72 912.00,483.82
             897.61,477.99 895.66,472.50 886.49,461.00
             884.63,458.68 881.23,455.39 880.02,453.00
             880.02,453.00 875.23,438.00 875.23,438.00
             875.04,436.18 875.03,434.83 875.23,433.00
             874.85,423.49 874.58,426.99 873.26,419.00
             873.26,419.00 872.74,413.00 872.74,413.00
             871.70,406.67 871.02,409.66 871.00,401.00
             871.00,401.00 871.00,384.00 871.00,384.00
             871.04,377.94 874.83,361.47 877.47,356.01
             879.08,352.71 880.79,351.87 881.98,349.72
             883.71,346.59 882.43,342.98 886.47,338.13
             888.47,335.72 902.31,323.67 905.00,322.31
             908.19,320.70 910.13,321.33 914.00,319.87
             921.03,317.22 925.18,315.05 933.00,315.00
             938.45,314.96 938.61,315.25 944.00,313.71 Z
           M 951.00,327.23
           C 944.58,329.21 945.59,328.96 939.00,329.00
             930.64,329.06 928.33,331.12 921.00,333.87
             916.87,335.43 914.79,334.62 912.00,336.02
             909.99,337.03 899.99,346.35 898.60,348.28
             896.13,351.73 897.75,354.43 895.98,357.99
             895.98,357.99 890.84,365.17 890.84,365.17
             887.94,370.85 885.01,385.56 885.00,392.00
             885.00,392.00 889.00,427.00 889.00,427.00
             889.14,435.02 893.43,444.70 898.16,451.00
             905.52,460.80 906.96,465.07 919.00,470.11
             924.89,472.57 924.34,472.96 931.00,473.00
             931.00,473.00 958.00,473.00 958.00,473.00
             964.49,472.89 963.40,472.02 968.00,471.26
             978.41,469.53 977.66,470.66 988.00,465.95
             988.00,465.95 994.00,463.49 994.00,463.49
             994.00,463.49 1005.55,454.74 1005.55,454.74
             1005.55,454.74 1011.05,448.02 1011.05,448.02
             1014.42,444.53 1019.10,441.97 1021.49,437.98
             1024.32,433.29 1028.90,417.66 1029.00,412.00
             1029.00,412.00 1029.00,383.00 1029.00,383.00
             1028.94,373.39 1025.15,366.57 1021.70,358.00
             1018.22,349.36 1012.61,339.62 1004.83,334.19
             992.09,325.29 984.41,327.00 970.00,327.23
             964.36,327.00 956.34,326.63 951.00,327.23 Z
           M 1174.00,389.87
           C 1176.92,389.08 1180.16,388.50 1182.94,389.87
             1187.81,392.68 1188.12,398.81 1182.94,402.03
             1179.06,404.44 1166.05,406.34 1161.00,407.25
             1161.00,407.25 1148.00,410.55 1148.00,410.55
             1148.00,410.55 1138.00,411.13 1138.00,411.13
             1130.70,411.94 1135.54,412.80 1123.00,413.00
             1115.26,413.13 1116.81,414.94 1108.00,415.00
             1108.00,415.00 1083.00,415.00 1083.00,415.00
             1080.04,414.99 1076.65,415.27 1074.15,413.40
             1069.94,410.26 1070.51,404.51 1075.06,402.02
             1077.27,400.81 1080.52,401.00 1083.00,401.00
             1083.00,401.00 1100.00,401.00 1100.00,401.00
             1109.63,400.98 1107.10,399.79 1113.00,399.00
             1113.00,399.00 1123.00,399.00 1123.00,399.00
             1123.00,399.00 1130.00,397.26 1130.00,397.26
             1130.00,397.26 1139.00,396.74 1139.00,396.74
             1139.00,396.74 1154.00,393.25 1154.00,393.25
             1154.00,393.25 1164.00,391.26 1164.00,391.26
             1168.80,390.46 1166.96,391.72 1174.00,389.87 Z
           M 833.00,399.71
           C 838.47,398.53 846.24,398.96 852.00,399.00
             854.26,399.02 856.90,398.90 858.94,400.02
             863.95,402.76 863.95,409.24 858.94,411.98
             856.05,413.56 847.62,412.95 844.00,413.00
             844.00,413.00 822.00,416.63 822.00,416.63
             822.00,416.63 811.00,417.47 811.00,417.47
             811.00,417.47 802.00,420.93 802.00,420.93
             802.00,420.93 796.00,420.93 796.00,420.93
             796.00,420.93 788.00,422.94 788.00,422.94
             788.00,422.94 771.00,422.94 771.00,422.94
             768.52,423.00 765.27,423.19 763.06,421.98
             758.51,419.49 757.94,413.74 762.15,410.60
             764.65,408.73 768.04,409.01 771.00,408.77
             774.42,408.99 779.83,409.22 783.00,408.77
             783.00,408.77 789.00,407.13 789.00,407.13
             789.00,407.13 796.00,406.53 796.00,406.53
             796.00,406.53 805.00,403.08 805.00,403.08
             805.00,403.08 815.00,403.08 815.00,403.08
             815.00,403.08 833.00,399.71 833.00,399.71 Z
           M 862.00,477.87
           C 865.26,476.96 869.85,476.33 872.94,477.87
             877.07,480.28 878.02,485.27 874.69,488.69
             874.69,488.69 859.00,497.76 859.00,497.76
             859.00,497.76 840.00,513.42 840.00,513.42
             840.00,513.42 821.00,523.71 821.00,523.71
             817.51,525.98 814.28,529.00 810.00,529.64
             804.70,530.44 800.20,526.38 801.33,521.00
             802.35,516.15 811.86,510.98 816.00,508.34
             816.00,508.34 832.83,499.42 832.83,499.42
             832.83,499.42 841.00,491.26 841.00,491.26
             845.59,487.39 856.51,480.23 862.00,477.87 Z
           M 1037.06,480.02
           C 1043.08,477.96 1044.34,479.63 1050.00,480.76
             1063.30,483.42 1072.71,492.30 1083.00,500.49
             1087.92,504.41 1093.14,506.96 1097.00,512.02
             1099.60,515.42 1105.93,521.45 1106.67,525.00
             1107.83,530.62 1102.31,535.94 1096.00,532.82
             1092.11,530.91 1087.00,524.64 1083.72,521.42
             1083.72,521.42 1065.00,505.71 1065.00,505.71
             1061.73,503.32 1051.58,497.18 1048.00,495.84
             1043.82,494.27 1040.45,495.31 1036.15,491.53
             1031.58,487.51 1032.72,483.41 1037.06,480.02 Z
           M 941.06,504.03
           C 949.29,501.49 952.88,508.92 953.00,516.00
             953.00,516.00 953.00,534.00 953.00,534.00
             952.87,541.91 951.02,539.84 951.00,550.00
             950.98,559.01 951.37,558.08 949.45,567.00
             948.05,573.51 948.62,580.24 941.00,583.97
             935.95,586.45 931.01,582.33 931.18,577.00
             931.31,573.15 933.96,570.20 934.74,566.00
             936.52,556.45 936.94,551.69 937.00,542.00
             937.07,531.69 939.21,536.39 939.00,523.00
             938.86,515.01 933.68,509.77 941.06,504.03 Z" />
</svg>
