<?xml version="1.0" encoding="UTF-8" standalone="no"?>
<!-- Uploaded to: SVG Repo, www.svgrepo.com, Transformed by: SVG Repo Mixer Tools -->

<svg
   width="800px"
   height="800px"
   viewBox="-16 0 256 256"
   version="1.1"
   preserveAspectRatio="xMidYMid"
   fill="#000000"
   stroke="#000000"
   id="svg4"
   sodipodi:docname="bashDark.svg"
   inkscape:version="1.4 (86a8ad7, 2024-10-11)"
   xmlns:inkscape="http://www.inkscape.org/namespaces/inkscape"
   xmlns:sodipodi="http://sodipodi.sourceforge.net/DTD/sodipodi-0.dtd"
   xmlns="http://www.w3.org/2000/svg"
   xmlns:svg="http://www.w3.org/2000/svg">
  <defs
     id="defs4" />
  <sodipodi:namedview
     id="namedview4"
     pagecolor="#ffffff"
     bordercolor="#000000"
     borderopacity="0.25"
     inkscape:showpageshadow="2"
     inkscape:pageopacity="0.0"
     inkscape:pagecheckerboard="0"
     inkscape:deskcolor="#d1d1d1"
     inkscape:zoom="0.69125"
     inkscape:cx="400"
     inkscape:cy="400"
     inkscape:window-width="1366"
     inkscape:window-height="697"
     inkscape:window-x="-8"
     inkscape:window-y="-8"
     inkscape:window-maximized="1"
     inkscape:current-layer="g4" />
  <g
     id="SVGRepo_bgCarrier"
     stroke-width="0" />
  <g
     id="SVGRepo_tracerCarrier"
     stroke-linecap="round"
     stroke-linejoin="round" />
  <g
     id="SVGRepo_iconCarrier"
     transform="translate(-1.3887884,0.92585895)">
    <g
       id="g4">
      <path
         id="path2"
         style="display:inline;fill:#ffffff;fill-opacity:1;stroke:none"
         d="M 112.00629 -0.00023395 C 106.61178 -0.00023395 101.21696 1.4323518 96.414413 4.296641 L 15.584413 52.276641 C 5.861628 58.142102 -0.057838074 68.690537 0.0006634 80.045391 L 0.0006634 175.98977 C -0.052127574 187.33886 5.8665997 197.87977 15.584413 203.74227 L 96.398163 251.70602 C 106.00422 257.43106 117.97523 257.43106 127.58129 251.70602 L 208.39504 203.74227 C 218.12403 197.88081 224.05076 187.33164 223.99566 175.97352 L 223.99566 80.045391 C 224.05416 68.690537 218.13408 58.142102 208.41129 52.276641 L 127.59754 4.296641 C 122.795 1.4323518 117.4008 -0.00023395 112.00629 -0.00023395 z M 111.99816 5.6966411 C 116.41575 5.6966411 120.83308 6.8698925 124.76566 9.2160161 L 205.51504 57.196016 C 212.17168 61.227851 216.71274 67.988859 217.92691 75.676016 C 215.24066 69.963696 209.2043 68.394214 202.16504 72.439766 L 125.76879 119.75664 C 116.23747 125.30714 109.21434 131.56978 109.19816 143.05914 L 109.19816 237.27164 C 109.19816 244.14908 111.96544 248.59901 116.23754 249.90977 C 114.83854 250.16615 113.42041 250.30195 111.99816 250.31477 C 107.5042 250.31177 103.09363 249.09819 99.230038 246.80289 L 18.416288 198.83914 C 10.430162 193.99983 5.5655754 185.32765 5.5994134 175.98977 L 5.5994134 80.045391 C 5.5623566 70.706679 10.427771 62.033013 18.416288 57.196016 L 99.230038 9.2160161 C 103.16263 6.8698925 107.58058 5.6966411 111.99816 5.6966411 z M 144.72004 140.70977 C 145.14313 140.70749 145.44543 141.062 145.45754 141.75227 L 145.52254 148.75977 C 147.93802 147.66241 150.63283 147.33568 153.24066 147.82352 C 153.7412 147.9527 153.95067 148.63056 153.75691 149.43789 L 152.22316 155.58977 C 152.10687 156.05405 151.86687 156.47849 151.52879 156.81727 C 151.41006 156.93442 151.27379 157.03245 151.12504 157.10789 C 150.94251 157.20659 150.73253 157.24074 150.52816 157.20477 C 147.9853 156.64167 145.32327 157.06846 143.08441 158.39914 C 139.81074 159.87383 137.67062 163.09359 137.57816 166.68289 C 137.57816 169.91222 139.19298 170.79976 144.82816 170.89664 C 152.27177 171.02581 155.50118 174.27158 155.58191 181.77977 C 155.40468 189.61688 151.79099 196.97998 145.70004 201.91477 L 145.82941 208.79289 C 145.81791 209.6472 145.37413 210.43777 144.65066 210.89227 L 140.58129 213.23352 C 139.93542 213.55645 139.40306 213.23335 139.38691 212.32914 L 139.38691 205.56352 C 135.89924 207.01672 132.36306 207.35585 130.10254 206.45164 C 129.68272 206.29017 129.48868 205.66073 129.66629 204.93414 L 131.13566 198.71789 C 131.24739 198.22593 131.50013 197.77697 131.86254 197.42602 C 131.97748 197.31592 132.10804 197.22354 132.25004 197.15164 C 132.46056 197.05704 132.70139 197.05704 132.91191 197.15164 C 135.79032 197.93205 138.86019 197.54315 141.45316 196.06977 C 145.19493 194.26516 147.62706 190.5335 147.76691 186.38164 C 147.76691 182.89397 145.84536 181.44082 141.30816 181.40852 C 135.44692 181.40852 130.00556 180.27811 129.89254 171.72039 C 130.0274 164.24411 133.49806 157.21969 139.35441 152.57039 L 139.06379 145.53039 C 139.06079 144.66378 139.50712 143.85761 140.24254 143.39914 L 144.26316 140.83164 C 144.42463 140.75091 144.57901 140.71052 144.72004 140.70977 z M 187.36066 184.93227 C 187.69746 184.9035 187.96414 185.16107 187.97629 185.60914 L 187.97629 190.24289 C 188.10104 190.85447 187.86196 191.4835 187.36254 191.85789 L 166.96941 204.25789 C 166.43657 204.56468 166.00066 204.30689 166.00066 203.66102 L 166.00066 198.38102 C 166.02254 197.80167 166.38271 197.2891 166.92066 197.07289 L 187.00754 185.05977 C 187.12864 184.98307 187.2484 184.94185 187.36066 184.93227 z " />
    </g>
  </g>
</svg>
