<?xml version="1.0" encoding="UTF-8" standalone="no"?>
<!-- Generator: Adobe Illustrator 16.0.4, SVG Export Plug-In . SVG Version: 6.00 Build 0)  -->

<svg
   version="1.1"
   id="Layer_1"
   x="0px"
   y="0px"
   width="306px"
   height="344.35px"
   viewBox="0 0 306 344.35"
   enable-background="new 0 0 306 344.35"
   xml:space="preserve"
   sodipodi:docname="cppLight.svg"
   inkscape:version="1.4 (86a8ad7, 2024-10-11)"
   xmlns:inkscape="http://www.inkscape.org/namespaces/inkscape"
   xmlns:sodipodi="http://sodipodi.sourceforge.net/DTD/sodipodi-0.dtd"
   xmlns="http://www.w3.org/2000/svg"
   xmlns:svg="http://www.w3.org/2000/svg"><defs
   id="defs6" /><sodipodi:namedview
   id="namedview6"
   pagecolor="#ffffff"
   bordercolor="#000000"
   borderopacity="0.25"
   inkscape:showpageshadow="2"
   inkscape:pageopacity="0.0"
   inkscape:pagecheckerboard="0"
   inkscape:deskcolor="#d1d1d1"
   inkscape:zoom="1.6059242"
   inkscape:cx="152.87148"
   inkscape:cy="172.175"
   inkscape:window-width="1366"
   inkscape:window-height="697"
   inkscape:window-x="-8"
   inkscape:window-y="-8"
   inkscape:window-maximized="1"
   inkscape:current-layer="Layer_1" />
<path
   id="path1"
   style="stroke:none;fill:#101010;fill-opacity:1"
   d="M 153 0 C 148.19675 -2.9605947e-16 143.3935 1.05225 139.75 3.15625 L 13.25 76.189453 C 5.962 80.396453 0 90.725625 0 99.140625 L 0 245.20898 C 0 249.41698 1.4905781 254.10272 3.8925781 258.26172 L 64.707031 223.15234 C 64.706748 223.15186 64.707314 223.15088 64.707031 223.15039 C 56.007729 208.14098 51 190.73708 51 172.17578 C 51 115.93278 96.757 70.175781 153 70.175781 C 189.292 70.175781 223.13808 89.704576 241.33008 121.14258 L 197.1875 146.6875 C 188.0825 130.9515 171.15 121.17578 153 121.17578 C 124.878 121.17578 102 144.05378 102 172.17578 C 102 181.45743 104.5322 190.14114 108.88281 197.64648 C 117.71343 212.88039 134.15998 223.17578 153 223.17578 C 171.152 223.17578 188.08541 213.39916 197.19141 197.66016 L 241.33398 223.20312 C 223.14198 254.64412 189.294 274.17578 153 274.17578 C 115.3189 274.17578 82.367887 253.62248 64.707031 223.15234 L 3.8925781 258.26367 C 6.2935781 262.42267 9.607 266.0552 13.25 268.1582 L 139.75 341.19336 C 147.037 345.40136 158.963 345.40136 166.25 341.19336 L 292.75 268.1582 C 296.394 266.0542 299.70642 262.42172 302.10742 258.26172 C 304.50842 254.10272 306 249.41698 306 245.20898 L 306 99.140625 C 306 94.932625 304.50942 90.246891 302.10742 86.087891 C 299.70542 81.927891 296.393 78.293453 292.75 76.189453 L 166.25 3.15625 C 162.6065 1.05225 157.80325 8.8817842e-16 153 0 z M 232.33398 155.17578 L 243.66602 155.17578 L 243.66602 166.50781 L 255 166.50781 L 255 177.8418 L 243.66602 177.8418 L 243.66602 189.17578 L 232.33398 189.17578 L 232.33398 177.8418 L 221 177.8418 L 221 166.50781 L 232.33398 166.50781 L 232.33398 155.17578 z M 274.83398 155.17578 L 286.16602 155.17578 L 286.16602 166.50781 L 297.5 166.50781 L 297.5 177.8418 L 286.16602 177.8418 L 286.16602 189.17578 L 274.83398 189.17578 L 274.83398 177.8418 L 263.5 177.8418 L 263.5 166.50781 L 274.83398 166.50781 L 274.83398 155.17578 z " />





</svg>
