<?xml version="1.0" encoding="UTF-8" standalone="no"?>
<svg
   viewBox="0 0 512 512"
   version="1.1"
   id="svg5"
   sodipodi:docname="htmlLight.svg"
   inkscape:version="1.4 (86a8ad7, 2024-10-11)"
   xmlns:inkscape="http://www.inkscape.org/namespaces/inkscape"
   xmlns:sodipodi="http://sodipodi.sourceforge.net/DTD/sodipodi-0.dtd"
   xmlns="http://www.w3.org/2000/svg"
   xmlns:svg="http://www.w3.org/2000/svg"
   xmlns:rdf="http://www.w3.org/1999/02/22-rdf-syntax-ns#"
   xmlns:cc="http://creativecommons.org/ns#"
   xmlns:dc="http://purl.org/dc/elements/1.1/">
  <defs
     id="defs5" />
  <sodipodi:namedview
     id="namedview5"
     pagecolor="#ffffff"
     bordercolor="#000000"
     borderopacity="0.25"
     inkscape:showpageshadow="2"
     inkscape:pageopacity="0.0"
     inkscape:pagecheckerboard="0"
     inkscape:deskcolor="#d1d1d1"
     inkscape:zoom="1.0800781"
     inkscape:cx="256"
     inkscape:cy="256"
     inkscape:window-width="1366"
     inkscape:window-height="697"
     inkscape:window-x="-8"
     inkscape:window-y="-8"
     inkscape:window-maximized="1"
     inkscape:current-layer="svg5" />
  <title
     id="title1">HTML5 Logo</title>
  <path
     d="M108.4 0h23v22.8h21.2V0h23v69h-23V46h-21v23h-23.2M206 23h-20.3V0h63.7v23H229v46h-23M259.5 0h24.1l14.8 24.3L313.2 0h24.1v69h-23V34.8l-16.1 24.8l-16.1-24.8v34.2h-22.6M348.7 0h23v46.2h32.6V69h-55.6"
     id="path1"
     style="fill:#101010;fill-opacity:1" />
  <path
     id="path2"
     d="M 74.599609 100.59961 L 107.59961 471 L 255.69922 512 L 404.40039 470.80078 L 437.40039 100.59961 L 74.599609 100.59961 z M 142 176.30078 L 255.80078 176.30078 L 256 176.30078 L 369.59961 176.30078 L 365.40039 221.69922 L 256 221.69922 L 255.80078 221.69922 L 191.80078 221.69922 L 196 268.19922 L 255.80078 268.19922 L 256 268.19922 L 361.30078 268.19922 L 348.80078 407.59961 L 256 433.3457 L 256 433.59961 L 162.80078 407.59961 L 156.40039 336.30078 L 202 336.30078 L 205.19922 372.59961 L 255.90039 386.17188 L 306.5 372.59961 L 311.80078 313.59961 L 255.80078 313.59961 L 255.80078 313.5 L 154.40039 313.5 L 142 176.30078 z "
     style="fill:#101010;fill-opacity:1" />
  <metadata
     id="metadata5">
    <rdf:RDF>
      <cc:Work
         rdf:about="">
        <dc:title>HTML5 Logo</dc:title>
      </cc:Work>
    </rdf:RDF>
  </metadata>
</svg>
